<svg width="117" height="24" viewBox="0 0 117 24" fill="none" xmlns="http://www.w3.org/2000/svg">
    <g clip-path="url(#clip0_30_29587)">
        <path
            d="M10.2826 3.39898C9.8436 3.80808 9.4122 4.2096 8.9808 4.60923C6.97708 6.46912 4.97335 8.3309 2.96773 10.187C2.50795 10.6131 2.03114 11.0222 1.45405 11.2723C0.767219 11.5696 0.373663 11.384 0.152287 10.6434C-0.156124 9.60744 0.00848801 8.64151 0.604498 7.75134C1.11158 6.99375 1.75111 6.36305 2.40767 5.74941C3.45399 4.77211 4.50789 3.80429 5.57503 2.85351C6.04238 2.43684 6.55325 2.05615 7.17764 1.92925C9.04703 1.55235 10.239 3.34405 10.2845 3.39708L10.2826 3.39898Z"
            fill="#8F93AB" />
        <path
            d="M1.2876 12.8613C2.42475 12.5337 3.27808 11.812 4.10871 11.0526C6.75765 8.63585 9.40279 6.21724 12.0631 3.81378C12.6496 3.28346 13.2665 2.77588 13.9192 2.33268C14.7499 1.76828 15.6524 1.68684 16.5417 2.22473C16.8633 2.41791 17.1793 2.6433 17.4404 2.91224C18.3467 3.84976 19.2417 4.80243 20.1139 5.77215C21.0411 6.80248 21.9531 7.84795 22.8405 8.91237C23.1451 9.27791 23.3948 9.70405 23.6011 10.1359C23.9852 10.9389 23.8868 11.7325 23.4194 12.4806C23.0013 13.1511 22.4412 13.7003 21.8641 14.2212C19.605 16.2629 17.3458 18.3046 15.0602 20.3179C14.4471 20.8596 13.7716 21.3444 13.0754 21.7725C11.7641 22.5812 10.4491 22.4808 9.25332 21.5225C8.55703 20.9656 7.90236 20.3425 7.30446 19.6796C5.37831 17.5451 3.4881 15.3803 1.58466 13.225C1.48816 13.117 1.40112 12.9996 1.2876 12.8594V12.8613Z"
            fill="#8F93AB" />
    </g>
    <path
        d="M40.6788 2.03829H43.5735V17.7327H40.6788V16.4099C39.8264 17.5017 38.6135 18.0458 37.0441 18.0458C35.4747 18.0458 34.2429 17.4731 33.1731 16.3297C32.1033 15.1863 31.5693 13.7852 31.5693 12.1265C31.5693 10.4677 32.1033 9.06661 33.1731 7.92322C34.2429 6.77983 35.5319 6.20718 37.0441 6.20718C38.5563 6.20718 39.8264 6.7531 40.6788 7.84305V2.03638V2.03829ZM35.3489 14.4037C35.94 14.9935 36.6837 15.2894 37.5819 15.2894C38.4801 15.2894 39.22 14.9935 39.8035 14.4037C40.387 13.8139 40.6788 13.0542 40.6788 12.1284C40.6788 11.2026 40.387 10.4429 39.8035 9.85305C39.22 9.26322 38.4801 8.96735 37.5819 8.96735C36.6837 8.96735 35.94 9.26322 35.3489 9.85305C34.7577 10.4429 34.4622 11.2026 34.4622 12.1284C34.4622 13.0542 34.7577 13.8139 35.3489 14.4037Z"
        fill="#8F93AB" />
    <path
        d="M53.2475 6.52197H56.3444L52.254 17.7516C51.6705 19.3531 50.8982 20.5156 49.9332 21.241C48.9702 21.9663 47.7708 22.2928 46.3368 22.2164V19.5268C47.1148 19.5421 47.7307 19.378 48.1884 19.0344C48.6442 18.6908 49.0084 18.1372 49.2773 17.3756L44.6777 6.52388H47.8413L50.7666 14.058L53.2494 6.52388L53.2475 6.52197Z"
        fill="#8F93AB" />
    <path
        d="M63.7009 6.20699C64.9271 6.20699 65.9416 6.61739 66.7406 7.44009C67.5415 8.2628 67.94 9.39855 67.94 10.8474V17.7306H65.0453V11.2062C65.0453 10.4599 64.8432 9.88721 64.4389 9.49018C64.0346 9.09505 63.4969 8.89653 62.8237 8.89653C62.0762 8.89653 61.4774 9.1275 61.0293 9.59135C60.5812 10.0552 60.3562 10.75 60.3562 11.6758V17.7287H57.4614V6.51813H60.3562V7.77414C61.0598 6.7281 62.1735 6.20508 63.699 6.20508L63.7009 6.20699Z"
        fill="#8F93AB" />
    <path
        d="M78.4781 6.52199H81.3728V17.7326H78.4781V16.4097C77.6104 17.5016 76.3919 18.0456 74.8206 18.0456C73.2493 18.0456 72.0422 17.473 70.9724 16.3296C69.9026 15.1862 69.3687 13.7851 69.3687 12.1263C69.3687 10.4675 69.9026 9.06646 70.9724 7.92307C72.0422 6.77968 73.3236 6.20703 74.8206 6.20703C76.3919 6.20703 77.6104 6.75296 78.4781 7.8429V6.52008V6.52199ZM73.1367 14.4036C73.7203 14.9934 74.4602 15.2893 75.3583 15.2893C76.2565 15.2893 77.0002 14.9934 77.5914 14.4036C78.1825 13.8137 78.4781 13.054 78.4781 12.1282C78.4781 11.2024 78.1825 10.4427 77.5914 9.8529C77.0002 9.26307 76.2565 8.96721 75.3583 8.96721C74.4602 8.96721 73.7203 9.26307 73.1367 9.8529C72.5532 10.4427 72.2615 11.2024 72.2615 12.1282C72.2615 13.054 72.5532 13.8137 73.1367 14.4036Z"
        fill="#8F93AB" />
    <path
        d="M95.6115 6.20703C96.8987 6.20703 97.9265 6.62507 98.6969 7.46304C99.4673 8.30102 99.8525 9.4215 99.8525 10.8264V17.7326H96.9578V11.0287C96.9578 10.3568 96.7938 9.83382 96.4639 9.45968C96.134 9.08555 95.6706 8.89849 95.0718 8.89849C94.4139 8.89849 93.901 9.11609 93.5349 9.5494C93.1687 9.9827 92.9857 10.6107 92.9857 11.4334V17.7345H90.0909V11.0307C90.0909 10.3587 89.9269 9.83572 89.597 9.46159C89.2671 9.08746 88.8037 8.90039 88.205 8.90039C87.5623 8.90039 87.0494 9.118 86.668 9.55131C86.2866 9.98461 86.0959 10.6126 86.0959 11.4353V17.7364H83.2012V6.52581H86.0959V7.71501C86.769 6.71287 87.8083 6.21276 89.2157 6.21276C90.623 6.21276 91.6089 6.75105 92.2667 7.82763C93.0143 6.75105 94.1298 6.21276 95.6096 6.21276L95.6115 6.20703Z"
        fill="#8F93AB" />
    <path
        d="M103.125 5.1763C102.646 5.1763 102.231 5.00068 101.88 4.64946C101.529 4.29823 101.352 3.88402 101.352 3.4049C101.352 2.92578 101.527 2.50775 101.88 2.14889C102.231 1.79003 102.646 1.6106 103.125 1.6106C103.604 1.6106 104.04 1.79003 104.393 2.14889C104.744 2.50775 104.919 2.92578 104.919 3.4049C104.919 3.88402 104.744 4.29823 104.393 4.64946C104.042 5.00068 103.619 5.1763 103.125 5.1763ZM101.689 17.7326V6.52202H104.584V17.7326H101.689Z"
        fill="#8F93AB" />
    <path
        d="M111.927 18.0456C110.236 18.0456 108.827 17.4787 107.698 16.341C106.569 15.2053 106.004 13.8004 106.004 12.1263C106.004 10.4523 106.569 9.04737 107.698 7.91162C108.827 6.77586 110.238 6.20703 111.927 6.20703C113.02 6.20703 114.014 6.46854 114.912 6.99156C115.81 7.51458 116.491 8.21703 116.954 9.09892L114.464 10.5554C114.239 10.0915 113.899 9.72501 113.443 9.45587C112.988 9.18672 112.475 9.0531 111.906 9.0531C111.039 9.0531 110.32 9.34134 109.752 9.9159C109.183 10.4924 108.899 11.2273 108.899 12.1244C108.899 13.0216 109.183 13.7355 109.752 14.31C110.32 14.8865 111.039 15.1728 111.906 15.1728C112.49 15.1728 113.009 15.043 113.466 14.7796C113.922 14.5181 114.263 14.1554 114.486 13.6916L117 15.127C116.506 16.0089 115.81 16.7152 114.914 17.2458C114.015 17.7765 113.022 18.0418 111.929 18.0418L111.927 18.0456Z"
        fill="#8F93AB" />
    <defs>
        <clipPath id="clip0_30_29587">
            <rect width="23.8381" height="23.8381" fill="white" />
        </clipPath>
    </defs>
</svg>